<svg xmlns:xlink="http://www.w3.org/1999/xlink" xmlns="http://www.w3.org/2000/svg" viewBox="0 0 1080 1080" width="1080" height="1080" preserveAspectRatio="xMidYMid meet" style="width: 100%; height: 100%;"><defs><clipPath id="__lottie_element_70"><rect width="1080" height="1080" x="0" y="0"></rect></clipPath><linearGradient id="__lottie_element_73" spreadMethod="pad" gradientUnits="userSpaceOnUse" x1="19" y1="0" x2="181" y2="0"><stop offset="0%" stop-color="rgb(106,106,222)"></stop><stop offset="50%" stop-color="rgb(68,72,199)"></stop><stop offset="100%" stop-color="rgb(29,38,176)"></stop></linearGradient><linearGradient id="__lottie_element_76" spreadMethod="pad" gradientUnits="userSpaceOnUse" x1="19" y1="0" x2="181" y2="0"><stop offset="0%" stop-color="rgb(106,106,222)"></stop><stop offset="50%" stop-color="rgb(68,72,199)"></stop><stop offset="100%" stop-color="rgb(29,38,176)"></stop></linearGradient><linearGradient id="__lottie_element_79" spreadMethod="pad" gradientUnits="userSpaceOnUse" x1="19" y1="0" x2="181" y2="0"><stop offset="0%" stop-color="rgb(106,106,222)"></stop><stop offset="50%" stop-color="rgb(68,72,199)"></stop><stop offset="100%" stop-color="rgb(29,38,176)"></stop></linearGradient><linearGradient id="__lottie_element_82" spreadMethod="pad" gradientUnits="userSpaceOnUse" x1="19" y1="0" x2="181" y2="0"><stop offset="0%" stop-color="rgb(106,106,222)"></stop><stop offset="50%" stop-color="rgb(68,72,199)"></stop><stop offset="100%" stop-color="rgb(29,38,176)"></stop></linearGradient><linearGradient id="__lottie_element_85" spreadMethod="pad" gradientUnits="userSpaceOnUse" x1="19" y1="0" x2="181" y2="0"><stop offset="0%" stop-color="rgb(48,203,211)"></stop><stop offset="50%" stop-color="rgb(39,121,194)"></stop><stop offset="100%" stop-color="rgb(29,38,176)"></stop></linearGradient><linearGradient id="__lottie_element_88" spreadMethod="pad" gradientUnits="userSpaceOnUse" x1="19" y1="0" x2="181" y2="0"><stop offset="0%" stop-color="rgb(48,203,211)"></stop><stop offset="50%" stop-color="rgb(39,121,194)"></stop><stop offset="100%" stop-color="rgb(29,38,176)"></stop></linearGradient><linearGradient id="__lottie_element_91" spreadMethod="pad" gradientUnits="userSpaceOnUse" x1="19" y1="0" x2="181" y2="0"><stop offset="0%" stop-color="rgb(48,203,211)"></stop><stop offset="50%" stop-color="rgb(39,121,194)"></stop><stop offset="100%" stop-color="rgb(29,38,176)"></stop></linearGradient><linearGradient id="__lottie_element_94" spreadMethod="pad" gradientUnits="userSpaceOnUse" x1="19" y1="0" x2="181" y2="0"><stop offset="0%" stop-color="rgb(48,203,211)"></stop><stop offset="50%" stop-color="rgb(39,121,194)"></stop><stop offset="100%" stop-color="rgb(29,38,176)"></stop></linearGradient><linearGradient id="__lottie_element_97" spreadMethod="pad" gradientUnits="userSpaceOnUse" x1="19" y1="0" x2="181" y2="0"><stop offset="0%" stop-color="rgb(48,203,211)"></stop><stop offset="50%" stop-color="rgb(39,121,194)"></stop><stop offset="100%" stop-color="rgb(29,38,176)"></stop></linearGradient><linearGradient id="__lottie_element_100" spreadMethod="pad" gradientUnits="userSpaceOnUse" x1="19" y1="0" x2="181" y2="0"><stop offset="0%" stop-color="rgb(48,203,211)"></stop><stop offset="50%" stop-color="rgb(39,121,194)"></stop><stop offset="100%" stop-color="rgb(29,38,176)"></stop></linearGradient><linearGradient id="__lottie_element_103" spreadMethod="pad" gradientUnits="userSpaceOnUse" x1="19" y1="0" x2="181" y2="0"><stop offset="0%" stop-color="rgb(48,203,211)"></stop><stop offset="50%" stop-color="rgb(39,121,194)"></stop><stop offset="100%" stop-color="rgb(29,38,176)"></stop></linearGradient><mask id="__lottie_element_104" mask-type="alpha"><g transform="matrix(1,0,0,1,15.61700439453125,141.3699951171875)" opacity="1" style="display: block;"><g opacity="1" transform="matrix(1,0,0,1,524.3829956054688,456.06500244140625)"><path stroke-linecap="round" stroke-linejoin="round" fill-opacity="0" stroke="rgb(127,127,127)" stroke-opacity="1" stroke-width="9" d=" M-502.1499938964844,-518.5650024414062 C-502.1499938964844,-518.5650024414062 -501.88299560546875,433.56500244140625 -501.88299560546875,433.56500244140625 C-501.88299560546875,433.56500244140625 501.88299560546875,433.56500244140625 501.88299560546875,433.56500244140625"></path></g></g></mask><linearGradient id="__lottie_element_108" spreadMethod="pad" gradientUnits="userSpaceOnUse" x1="0" y1="-524" x2="100" y2="468"><stop offset="0%" stop-color="rgb(49,202,211)"></stop><stop offset="50%" stop-color="rgb(39,118,193)"></stop><stop offset="100%" stop-color="rgb(28,33,175)"></stop></linearGradient><linearGradient id="__lottie_element_108" spreadMethod="pad" gradientUnits="userSpaceOnUse" x1="0" y1="-524" x2="100" y2="468"><stop offset="0%" stop-color="rgb(49,202,211)"></stop><stop offset="50%" stop-color="rgb(39,118,193)"></stop><stop offset="100%" stop-color="rgb(28,33,175)"></stop></linearGradient><linearGradient id="__lottie_element_103" spreadMethod="pad" gradientUnits="userSpaceOnUse" x1="19" y1="0" x2="181" y2="0"><stop offset="0%" stop-color="rgb(48,203,211)"></stop><stop offset="50%" stop-color="rgb(39,121,194)"></stop><stop offset="100%" stop-color="rgb(29,38,176)"></stop></linearGradient><linearGradient id="__lottie_element_100" spreadMethod="pad" gradientUnits="userSpaceOnUse" x1="19" y1="0" x2="181" y2="0"><stop offset="0%" stop-color="rgb(48,203,211)"></stop><stop offset="50%" stop-color="rgb(39,121,194)"></stop><stop offset="100%" stop-color="rgb(29,38,176)"></stop></linearGradient><linearGradient id="__lottie_element_97" spreadMethod="pad" gradientUnits="userSpaceOnUse" x1="19" y1="0" x2="181" y2="0"><stop offset="0%" stop-color="rgb(48,203,211)"></stop><stop offset="50%" stop-color="rgb(39,121,194)"></stop><stop offset="100%" stop-color="rgb(29,38,176)"></stop></linearGradient><linearGradient id="__lottie_element_94" spreadMethod="pad" gradientUnits="userSpaceOnUse" x1="19" y1="0" x2="181" y2="0"><stop offset="0%" stop-color="rgb(48,203,211)"></stop><stop offset="50%" stop-color="rgb(39,121,194)"></stop><stop offset="100%" stop-color="rgb(29,38,176)"></stop></linearGradient><linearGradient id="__lottie_element_91" spreadMethod="pad" gradientUnits="userSpaceOnUse" x1="19" y1="0" x2="181" y2="0"><stop offset="0%" stop-color="rgb(48,203,211)"></stop><stop offset="50%" stop-color="rgb(39,121,194)"></stop><stop offset="100%" stop-color="rgb(29,38,176)"></stop></linearGradient><linearGradient id="__lottie_element_88" spreadMethod="pad" gradientUnits="userSpaceOnUse" x1="19" y1="0" x2="181" y2="0"><stop offset="0%" stop-color="rgb(48,203,211)"></stop><stop offset="50%" stop-color="rgb(39,121,194)"></stop><stop offset="100%" stop-color="rgb(29,38,176)"></stop></linearGradient><linearGradient id="__lottie_element_85" spreadMethod="pad" gradientUnits="userSpaceOnUse" x1="19" y1="0" x2="181" y2="0"><stop offset="0%" stop-color="rgb(48,203,211)"></stop><stop offset="50%" stop-color="rgb(39,121,194)"></stop><stop offset="100%" stop-color="rgb(29,38,176)"></stop></linearGradient><linearGradient id="__lottie_element_82" spreadMethod="pad" gradientUnits="userSpaceOnUse" x1="19" y1="0" x2="181" y2="0"><stop offset="0%" stop-color="rgb(106,106,222)"></stop><stop offset="50%" stop-color="rgb(68,72,199)"></stop><stop offset="100%" stop-color="rgb(29,38,176)"></stop></linearGradient><linearGradient id="__lottie_element_79" spreadMethod="pad" gradientUnits="userSpaceOnUse" x1="19" y1="0" x2="181" y2="0"><stop offset="0%" stop-color="rgb(106,106,222)"></stop><stop offset="50%" stop-color="rgb(68,72,199)"></stop><stop offset="100%" stop-color="rgb(29,38,176)"></stop></linearGradient><linearGradient id="__lottie_element_76" spreadMethod="pad" gradientUnits="userSpaceOnUse" x1="19" y1="0" x2="181" y2="0"><stop offset="0%" stop-color="rgb(106,106,222)"></stop><stop offset="50%" stop-color="rgb(68,72,199)"></stop><stop offset="100%" stop-color="rgb(29,38,176)"></stop></linearGradient><linearGradient id="__lottie_element_73" spreadMethod="pad" gradientUnits="userSpaceOnUse" x1="19" y1="0" x2="181" y2="0"><stop offset="0%" stop-color="rgb(106,106,222)"></stop><stop offset="50%" stop-color="rgb(68,72,199)"></stop><stop offset="100%" stop-color="rgb(29,38,176)"></stop></linearGradient></defs><g clip-path="url(#__lottie_element_70)"><g mask="url(#__lottie_element_104)" style="display: block;"><g transform="matrix(1,0,0,1.1091500520706177,534,520.6079711914062)" opacity="1"><g opacity="1" transform="matrix(1,0,0,1,6.5,26.5)"><path fill="#89781F" fill-opacity="1" d=" M531.5,-453.5 C531.5,-453.5 531.5,453.5 531.5,453.5 C531.5,453.5 -531.5,453.5 -531.5,453.5 C-531.5,453.5 -531.5,-453.5 -531.5,-453.5 C-531.5,-453.5 531.5,-453.5 531.5,-453.5z"></path><path fill="url(&quot;#__lottie_element_108&quot;)" fill-opacity="1" d=" M531.5,-453.5 C531.5,-453.5 531.5,453.5 531.5,453.5 C531.5,453.5 -531.5,453.5 -531.5,453.5 C-531.5,453.5 -531.5,-453.5 -531.5,-453.5 C-531.5,-453.5 531.5,-453.5 531.5,-453.5z"></path></g></g></g><g transform="matrix(-1.225319504737854,0.10720156878232956,-0.10720156878232956,-1.225319504737854,347.4935302734375,569.8551025390625)" opacity="0.89" style="display: block;"><path fill="url(&quot;#__lottie_element_103&quot;)" fill-opacity="1" d=" M20,111.79 C20,162.49 61.1,203.59 111.8,203.59 C162.49,203.59 203.59,162.49 203.59,111.79 C203.59,61.1 162.49,20 111.8,20 C61.1,20 20,61.1 20,111.79z"></path><g opacity="1" transform="matrix(1,0,0,1,111.7959976196289,111.7959976196289)"></g></g><g transform="matrix(-1.3153996467590332,-0.30368393659591675,0.30368393659591675,-1.3153996467590332,888.6287841796875,889.861083984375)" opacity="0.89" style="display: block;"><path fill="url(&quot;#__lottie_element_100&quot;)" fill-opacity="1" d=" M20,111.79 C20,162.49 61.1,203.59 111.8,203.59 C162.49,203.59 203.59,162.49 203.59,111.79 C203.59,61.1 162.49,20 111.8,20 C61.1,20 20,61.1 20,111.79z"></path><g opacity="1" transform="matrix(1,0,0,1,111.7959976196289,111.7959976196289)"></g></g><g transform="matrix(-1.1887315511703491,-0.27444028854370117,0.27444028854370117,-1.1887315511703491,779.7371215820312,653.4307250976562)" opacity="0.89" style="display: block;"><path fill="url(&quot;#__lottie_element_97&quot;)" fill-opacity="1" d=" M20,111.79 C20,162.49 61.1,203.59 111.8,203.59 C162.49,203.59 203.59,162.49 203.59,111.79 C203.59,61.1 162.49,20 111.8,20 C61.1,20 20,61.1 20,111.79z"></path><g opacity="1" transform="matrix(1,0,0,1,111.7959976196289,111.7959976196289)"></g></g><g transform="matrix(-0.5943657755851746,-0.13722014427185059,0.13722014427185059,-0.5943657755851746,1000.6300659179688,427.6423645019531)" opacity="0.89" style="display: block;"><path fill="url(&quot;#__lottie_element_94&quot;)" fill-opacity="1" d=" M20,111.79 C20,162.49 61.1,203.59 111.8,203.59 C162.49,203.59 203.59,162.49 203.59,111.79 C203.59,61.1 162.49,20 111.8,20 C61.1,20 20,61.1 20,111.79z"></path><g opacity="1" transform="matrix(1,0,0,1,111.7959976196289,111.7959976196289)"></g></g><g transform="matrix(-0.740521252155304,-0.17096279561519623,0.17096279561519623,-0.740521252155304,440.1973571777344,339.7542724609375)" opacity="0.89" style="display: block;"><path fill="url(&quot;#__lottie_element_91&quot;)" fill-opacity="1" d=" M20,111.79 C20,162.49 61.1,203.59 111.8,203.59 C162.49,203.59 203.59,162.49 203.59,111.79 C203.59,61.1 162.49,20 111.8,20 C61.1,20 20,61.1 20,111.79z"></path><g opacity="1" transform="matrix(1,0,0,1,111.7959976196289,111.7959976196289)"></g></g><g transform="matrix(-0.6199055910110474,0.010820492170751095,-0.010820492170751095,-0.6199055910110474,484.03564453125,1017.947265625)" opacity="0.89" style="display: block;"><path fill="url(&quot;#__lottie_element_88&quot;)" fill-opacity="1" d=" M20,111.79 C20,162.49 61.1,203.59 111.8,203.59 C162.49,203.59 203.59,162.49 203.59,111.79 C203.59,61.1 162.49,20 111.8,20 C61.1,20 20,61.1 20,111.79z"></path><g opacity="1" transform="matrix(1,0,0,1,111.7959976196289,111.7959976196289)"></g></g><g transform="matrix(-0.8698675036430359,0.015183594077825546,-0.015183594077825546,-0.8698675036430359,635.4682006835938,914.4042358398438)" opacity="0.89" style="display: block;"><path fill="url(&quot;#__lottie_element_85&quot;)" fill-opacity="1" d=" M20,111.79 C20,162.49 61.1,203.59 111.8,203.59 C162.49,203.59 203.59,162.49 203.59,111.79 C203.59,61.1 162.49,20 111.8,20 C61.1,20 20,61.1 20,111.79z"></path><g opacity="1" transform="matrix(1,0,0,1,111.7959976196289,111.7959976196289)"></g></g><g transform="matrix(0.29107236862182617,0.5474275350570679,-0.5474275350570679,0.29107236862182617,187.18247985839844,566.113037109375)" opacity="0.89" style="display: block;"><path fill="url(&quot;#__lottie_element_82&quot;)" fill-opacity="1" d=" M20,111.79 C20,162.49 61.1,203.59 111.8,203.59 C162.49,203.59 203.59,162.49 203.59,111.79 C203.59,61.1 162.49,20 111.8,20 C61.1,20 20,61.1 20,111.79z"></path><g opacity="1" transform="matrix(1,0,0,1,111.7959976196289,111.7959976196289)"></g></g><g transform="matrix(0.3849666714668274,0.7240170240402222,-0.7240170240402222,0.3849666714668274,386.427490234375,268.87408447265625)" opacity="0.89" style="display: block;"><path fill="url(&quot;#__lottie_element_79&quot;)" fill-opacity="1" d=" M20,111.79 C20,162.49 61.1,203.59 111.8,203.59 C162.49,203.59 203.59,162.49 203.59,111.79 C203.59,61.1 162.49,20 111.8,20 C61.1,20 20,61.1 20,111.79z"></path><g opacity="1" transform="matrix(1,0,0,1,111.7959976196289,111.7959976196289)"></g></g><g transform="matrix(0.34271425008773804,0.6445517539978027,-0.6445517539978027,0.34271425008773804,802.2672119140625,249.4816131591797)" opacity="0.89" style="display: block;"><path fill="url(&quot;#__lottie_element_76&quot;)" fill-opacity="1" d=" M20,111.79 C20,162.49 61.1,203.59 111.8,203.59 C162.49,203.59 203.59,162.49 203.59,111.79 C203.59,61.1 162.49,20 111.8,20 C61.1,20 20,61.1 20,111.79z"></path><g opacity="1" transform="matrix(1,0,0,1,111.7959976196289,111.7959976196289)"></g></g><g transform="matrix(0.34271425008773804,0.6445517539978027,-0.6445517539978027,0.34271425008773804,952.2672119140625,736.4816284179688)" opacity="0.89" style="display: block;"><path fill="url(&quot;#__lottie_element_73&quot;)" fill-opacity="1" d=" M20,111.79 C20,162.49 61.1,203.59 111.8,203.59 C162.49,203.59 203.59,162.49 203.59,111.79 C203.59,61.1 162.49,20 111.8,20 C61.1,20 20,61.1 20,111.79z"></path><g opacity="1" transform="matrix(1,0,0,1,111.7959976196289,111.7959976196289)"></g></g></g></svg>