<svg width="100" height="58" viewBox="0 0 100 58" fill="none" xmlns="http://www.w3.org/2000/svg">
<path opacity="0.58" d="M98.4911 20.5943L88.5619 32.8357C92.0626 35.4557 95.8501 37.6689 99.8512 39.4325C97.0908 41.4969 95.2469 44.5587 94.7132 47.9641C94.1796 51.3696 94.9984 54.8487 96.9949 57.6586L25.0426 57.8082C16.5416 57.8082 7.00692 57.441 1.11744 51.2931C-1.37164 46.4781 9.10156 43.2681 8.31266 37.8955C7.67339 33.5022 0.0157158 32.5909 0.042919 28.1568C0.042919 26.171 5.29312 9.2234 6.49006 7.14236C11.9307 -2.25632 22.3495 0.967252 31.6394 2.2594C54.6192 5.46964 77.0887 11.6322 98.4911 20.5943Z" fill="#4B8DE0"/>
</svg>
